<?xml version="1.0" encoding="UTF-8"?>
<svg width="228px" height="224px" viewBox="0 0 228 224" version="1.1" xmlns="http://www.w3.org/2000/svg" xmlns:xlink="http://www.w3.org/1999/xlink">
    <title>Fig</title>
    <g id="Distance-Learning-v2.5" stroke="none" stroke-width="1" fill="none" fill-rule="evenodd">
        <g id="001_DL-Students/01.1_Assignments-Empty-State" transform="translate(-651.000000, -299.000000)">
            <g id="Fig" transform="translate(647.000000, 292.000000)">
                <polygon id="Rectangle" fill="#0F526F" opacity="0.2" points="49.0472973 34.8557432 73.4161655 34.8557432 73.4161655 204.430743 49.0472973 204.430743"></polygon>
                <path d="M152.070152,29.75 C152.570038,29.75 153.066218,29.7859459 153.555236,29.8564062 C151.748167,30.2730358 150.211372,31.7836199 150.081154,33.9176725 L150.072222,34.2125 L150.072222,38.675 L53.3847222,38.675 C52.6218789,38.675 51.9931553,39.2492348 51.9072297,39.9890261 L51.8972222,40.1625 L51.8972222,197.8375 C51.8972222,198.600343 52.471457,199.229067 53.2112483,199.314992 L53.3847222,199.325 L184.284722,199.325 C185.047566,199.325 185.676289,198.750765 185.762215,198.010974 L185.772222,197.8375 L185.772222,74.375 L190.234722,74.375 L190.485765,74.3685376 C192.643162,74.2568042 194.171657,72.711071 194.590589,70.8917627 C194.637714,71.2179238 194.669398,71.5471686 194.685285,71.8785395 L194.697222,72.3770707 L194.697222,197.8375 C194.697222,203.468359 190.227607,208.055284 184.642689,208.243962 L184.284722,208.25 L53.3847222,208.25 C47.7538628,208.25 43.1669379,203.780385 42.97826,198.195467 L42.9722222,197.8375 L42.9722222,40.1625 C42.9722222,34.5316406 47.4418375,29.9447157 53.0267557,29.7560378 L53.3847222,29.75 L152.070152,29.75 Z" id="Path" fill="#09212C" fill-rule="nonzero"></path>
                <path d="M150.2375,34.2125 C150.2375,30.3214257 154.841879,28.3314405 157.67338,30.8840912 L157.855464,31.057036 L193.555464,66.757036 C196.306869,69.508441 194.458213,74.171361 190.651043,74.3685376 L190.4,74.375 L154.7,74.375 C152.32345,74.375 150.380804,72.5172316 150.245075,70.1747058 L150.2375,69.9125 L150.2375,34.2125 Z M159.1625,44.9864625 L159.1625,65.45 L179.626038,65.45 L159.1625,44.9864625 Z" id="Shape" fill="#0F526F"></path>
                <g id="Face" transform="translate(82.638889, 92.555556)" fill="#0F526F">
                    <path d="M76.7107438,19.5328283 C79.6528392,19.5328283 82.0378788,22.1563718 82.0378788,25.3926768 C82.0378788,28.6289817 79.6528392,31.2525253 76.7107438,31.2525253 L40.4862259,31.2525253 C37.5441305,31.2525253 35.1590909,28.6289817 35.1590909,25.3926768 C35.1590909,22.1563718 37.5441305,19.5328283 40.4862259,19.5328283 L76.7107438,19.5328283 Z" id="Path" transform="translate(58.598485, 25.392677) rotate(-270.000000) translate(-58.598485, -25.392677) "></path>
                    <path d="M33.7385216,19.5328283 C36.680617,19.5328283 39.0656566,22.1563718 39.0656566,25.3926768 C39.0656566,28.6289817 36.680617,31.2525253 33.7385216,31.2525253 L-2.48599633,31.2525253 C-5.42809174,31.2525253 -7.81313131,28.6289817 -7.81313131,25.3926768 C-7.81313131,22.1563718 -5.42809174,19.5328283 -2.48599633,19.5328283 L33.7385216,19.5328283 Z" id="Path-Copy" transform="translate(15.626263, 25.392677) rotate(-270.000000) translate(-15.626263, -25.392677) "></path>
                    <path d="M68.1923063,59.5751263 C66.3574819,59.5751263 64.88332,60.3986698 63.873024,61.9790006 C61.7624749,66.0958313 58.3403892,69.2857946 53.5279737,71.638202 C48.6703706,74.0126979 43.2394543,75.2013889 37.2240019,75.2013889 C31.0411566,75.2013889 25.5268681,74.0121989 20.6702858,71.638202 C16.2305695,69.4679776 13.0472886,66.6551085 11.0920393,63.1968063 L10.6287946,62.3187827 C9.81496234,60.5275599 8.29951506,59.5751263 6.25569755,59.5751263 C5.28580324,59.5751263 4.57914629,59.6738201 4.07858445,59.918505 C1.11253467,61.2713323 0.213447583,63.5786663 1.64001053,66.3679992 C4.38953574,72.0807582 9.04000454,76.6272472 15.5488837,79.9763772 C22.0175381,83.3048097 29.2469011,84.967803 37.2240019,84.967803 C45.0346065,84.967803 52.0976331,83.3455195 58.4001086,80.0982117 C64.7307747,76.8363788 69.4545701,72.3441531 72.5475336,66.632516 C73.9738679,63.8442252 73.1884542,61.5406673 70.3694194,60.1626653 C69.5801365,59.7768477 68.8579645,59.5751263 68.1923063,59.5751263 Z" id="ï†" fill-rule="nonzero"></path>
                </g>
                <path d="M25.209631,14.9924593 C26.8692746,14.9924593 28.2146815,16.4724069 28.2146815,18.2980149 C28.2146815,20.1236228 26.8692746,21.6035704 25.209631,21.6035704 L4.77528758,21.6035704 C3.11564402,21.6035704 1.77023708,20.1236228 1.77023708,18.2980149 C1.77023708,16.4724069 3.11564402,14.9924593 4.77528758,14.9924593 L25.209631,14.9924593 Z" id="Path-Copy" fill="#0F526F" transform="translate(14.992459, 18.298015) rotate(45.000000) translate(-14.992459, -18.298015) "></path>
                <path d="M231.156653,14.9924593 C232.816297,14.9924593 234.161704,16.4724069 234.161704,18.2980149 C234.161704,20.1236228 232.816297,21.6035704 231.156653,21.6035704 L210.72231,21.6035704 C209.062666,21.6035704 207.717259,20.1236228 207.717259,18.2980149 C207.717259,16.4724069 209.062666,14.9924593 210.72231,14.9924593 L231.156653,14.9924593 Z" id="Path-Copy-3" fill="#0F526F" transform="translate(220.939482, 18.298015) scale(-1, 1) rotate(45.000000) translate(-220.939482, -18.298015) "></path>
                <path d="M25.209631,216.631348 C26.8692746,216.631348 28.2146815,218.111296 28.2146815,219.936904 C28.2146815,221.762512 26.8692746,223.242459 25.209631,223.242459 L4.77528758,223.242459 C3.11564402,223.242459 1.77023708,221.762512 1.77023708,219.936904 C1.77023708,218.111296 3.11564402,216.631348 4.77528758,216.631348 L25.209631,216.631348 Z" id="Path-Copy-2" fill="#0F526F" transform="translate(14.992459, 219.936904) scale(-1, 1) rotate(45.000000) translate(-14.992459, -219.936904) "></path>
                <path d="M231.156653,216.631348 C232.816297,216.631348 234.161704,218.111296 234.161704,219.936904 C234.161704,221.762512 232.816297,223.242459 231.156653,223.242459 L210.72231,223.242459 C209.062666,223.242459 207.717259,221.762512 207.717259,219.936904 C207.717259,218.111296 209.062666,216.631348 210.72231,216.631348 L231.156653,216.631348 Z" id="Path-Copy-4" fill="#0F526F" transform="translate(220.939482, 219.936904) rotate(45.000000) translate(-220.939482, -219.936904) "></path>
            </g>
        </g>
    </g>
</svg>